<svg width="40" height="40" viewBox="0 0 40 40" fill="none" xmlns="http://www.w3.org/2000/svg">
<g clip-path="url(#clip0_78_337)">
<path d="M20 18.3335C22.2101 18.3335 24.3297 19.2115 25.8926 20.7743C27.4554 22.3371 28.3333 24.4567 28.3333 26.6668V36.6668H11.6667V26.6668C11.6667 24.4567 12.5446 22.3371 14.1074 20.7743C15.6702 19.2115 17.7899 18.3335 20 18.3335ZM8.81333 23.3435C8.54809 24.2381 8.39141 25.1614 8.34666 26.0935L8.33333 26.6668V36.6668H3.33333V29.1668C3.333 27.7295 3.86338 26.3426 4.82272 25.2722C5.78206 24.2018 7.10283 23.5233 8.53166 23.3668L8.81499 23.3435H8.81333ZM31.1867 23.3435C32.6698 23.4339 34.0627 24.0868 35.081 25.1689C36.0993 26.251 36.6664 27.6809 36.6667 29.1668V36.6668H31.6667V26.6668C31.6667 25.5118 31.5 24.3968 31.1867 23.3435ZM9.16666 13.3335C10.2717 13.3335 11.3315 13.7725 12.1129 14.5539C12.8943 15.3353 13.3333 16.3951 13.3333 17.5002C13.3333 18.6052 12.8943 19.665 12.1129 20.4464C11.3315 21.2278 10.2717 21.6668 9.16666 21.6668C8.06159 21.6668 7.00179 21.2278 6.22038 20.4464C5.43898 19.665 5 18.6052 5 17.5002C5 16.3951 5.43898 15.3353 6.22038 14.5539C7.00179 13.7725 8.06159 13.3335 9.16666 13.3335ZM30.8333 13.3335C31.9384 13.3335 32.9982 13.7725 33.7796 14.5539C34.561 15.3353 35 16.3951 35 17.5002C35 18.6052 34.561 19.665 33.7796 20.4464C32.9982 21.2278 31.9384 21.6668 30.8333 21.6668C29.7283 21.6668 28.6685 21.2278 27.887 20.4464C27.1056 19.665 26.6667 18.6052 26.6667 17.5002C26.6667 16.3951 27.1056 15.3353 27.887 14.5539C28.6685 13.7725 29.7283 13.3335 30.8333 13.3335ZM20 3.3335C21.7681 3.3335 23.4638 4.03588 24.714 5.28612C25.9643 6.53636 26.6667 8.23205 26.6667 10.0002C26.6667 11.7683 25.9643 13.464 24.714 14.7142C23.4638 15.9645 21.7681 16.6668 20 16.6668C18.2319 16.6668 16.5362 15.9645 15.2859 14.7142C14.0357 13.464 13.3333 11.7683 13.3333 10.0002C13.3333 8.23205 14.0357 6.53636 15.2859 5.28612C16.5362 4.03588 18.2319 3.3335 20 3.3335Z" fill="white"/>
</g>
<defs>
<clipPath id="clip0_78_337">
<rect width="40" height="40" fill="white"/>
</clipPath>
</defs>
</svg>
