<svg width="188" height="40" viewBox="0 0 188 40" fill="none" xmlns="http://www.w3.org/2000/svg">
<path fill-rule="evenodd" clip-rule="evenodd" d="M0 20C0 31.0409 8.88741 40 19.8399 40C30.7925 40 39.6799 31.0409 39.6799 20C39.6799 8.95911 30.7925 0 19.8399 0C8.88741 0 0 8.95911 0 20ZM0.700667 20C0.700667 9.33085 9.29306 0.669145 19.8768 0.669145C30.4606 0.669145 39.053 9.33085 39.053 20C39.053 30.632 30.4606 39.2937 19.8768 39.2937C9.29306 39.3309 0.700667 30.6691 0.700667 20Z" fill="#00487C"/>
<path fill-rule="evenodd" clip-rule="evenodd" d="M6.19537 14.5354C11.2844 11.1897 16.8898 9.2194 26.4041 10.8923C26.9204 10.5949 27.2154 10.2975 27.3629 9.6655C25.0028 8.81048 22.4213 8.51308 19.1024 8.55026C16.1153 8.6246 10.7313 9.73985 7.85485 11.4499L8.7399 10.3346C10.7681 9.14505 16.0047 7.58371 19.9137 7.47219C22.6795 7.43501 24.1177 7.58371 27.3998 8.47591C27.1048 7.91828 26.441 7.62089 25.4453 7.17479C22.2738 5.72498 16.2997 5.61345 11.4319 7.76959C12.0589 7.36066 12.6489 6.98892 13.4602 6.61717C15.0828 5.87367 17.7011 5.16736 20.9831 5.20453C23.6014 5.24171 26.736 6.17107 28.6536 8.06698C28.9855 8.43873 29.1699 8.84765 29.2436 9.18223C30.7556 9.96289 31.6406 10.6692 32.1201 11.5242C32.3044 11.9703 32.4151 12.4536 32.3044 12.974C32.9313 13.3458 33.2264 13.6804 33.5583 14.0893C33.7795 14.4239 33.9639 14.8328 34.0008 15.2045C34.0745 15.6878 34.1114 16.2082 33.632 16.8402C34.1483 17.1004 34.5539 17.8068 34.6277 18.1413C34.849 19.2937 34.1483 20.409 33.1526 21.3012C32.0463 22.3049 29.5755 23.4573 27.5842 23.9778C23.6014 24.9815 20.0981 25.4276 17.2954 25.948C18.5492 26.2454 20.2456 26.6543 23.0483 26.6543C28.9855 26.6543 34.2221 23.8291 34.2221 23.8291C34.2221 23.8291 34.1114 24.2008 34.0008 24.5354C30.2393 26.8402 24.2283 27.8068 21.6838 27.6952C19.0655 27.5837 16.8898 27.1748 14.7509 26.5056C14.0871 26.6915 13.4602 26.8774 12.8333 27.1748C16.0785 28.6618 18.5492 28.9964 21.3519 29.2194C24.1915 29.4424 28.8749 28.7361 32.8576 27.2863C32.6732 27.4722 32.5995 27.7696 32.4151 27.9183C30.3868 28.9964 26.0722 30.0744 23.9333 30.1488C21.7944 30.2231 19.1762 30.1488 16.8898 29.7398C14.9353 29.3681 13.3127 28.7361 11.6532 27.9926C11.3582 28.2157 11.2107 28.5131 11.1369 28.8477C17.5167 32.2677 23.6383 32.3421 30.6081 30.1488L29.9812 30.7807C22.3107 33.9034 16.3366 32.6766 11.6901 30.4462C11.5426 30.3718 11.3582 30.2975 11.2107 30.2231C11.6532 30.9666 15.1934 33.5688 19.1393 33.9034C21.8682 34.1265 25.1871 33.6432 27.1785 32.8625L25.9984 33.4573C25.0396 33.9406 22.4951 35.0187 18.9549 34.7584C14.2346 34.4239 11.5794 32.3421 10.3625 31.2268C9.80934 30.7064 9.5512 30.1116 9.36681 29.3681C8.29738 28.8105 7.63359 28.2157 7.08043 27.3607C6.74853 26.8402 6.82229 26.2826 6.89604 25.7993L7.00667 25.3532C6.49039 24.9815 5.97411 24.5726 5.75285 24.1636C5.27344 23.3086 5.56846 22.6023 5.90036 22.0075C5.60534 21.6729 5.3472 21.3755 5.23657 21.041C5.12594 20.632 5.08906 20.2603 5.12594 19.8514C5.19969 19.1451 5.60534 18.4759 6.08474 17.9183C7.1173 16.7287 8.7399 15.7993 11.5426 14.87C14.2715 13.9778 15.3409 13.8291 17.406 13.3458C19.8031 12.7882 22.6795 12.6023 25.0765 11.7473C18.4017 10.5577 11.4319 11.6358 5.78973 15.5763L6.19537 14.5354ZM28.9486 10.3718C28.8749 10.7064 28.5061 11.0781 28.2848 11.3384C29.0224 11.5242 29.7599 11.7845 30.4606 12.0819C30.3499 11.4127 29.6124 10.7807 28.9486 10.3718ZM8.37113 23.8291C7.9286 23.5688 7.63359 23.4201 7.30169 23.1599C7.1173 23.5688 7.48608 24.0521 7.85485 24.2752C8.00236 24.1265 8.18674 23.9778 8.37113 23.8291ZM30.9031 15.0187C31.3825 15.2417 31.825 15.4276 32.2307 15.725C32.5257 15.1302 32.3413 14.7584 31.7144 14.238C31.4931 14.5354 31.1981 14.7956 30.9031 15.0187ZM29.4649 15.9109C28.5061 16.3569 27.0679 16.8402 25.0765 17.3607C23.4539 17.7696 19.4343 18.3644 15.1197 19.2938C13.7552 19.5911 10.0675 20.4833 8.2605 22.0075C8.77678 22.4164 9.0718 22.528 9.66183 22.8253C10.3994 22.3421 11.4319 21.896 12.9439 21.4871C15.5991 20.7807 17.5536 20.4833 19.9506 20.0744C22.3107 19.7027 26.736 18.7733 29.2068 17.8811C30.018 17.5837 30.7556 17.212 31.3088 16.7659C31.1244 16.6172 29.5386 15.8365 29.4649 15.9109ZM10.8788 26.2826C11.2476 26.0595 11.6901 25.8365 12.1695 25.6506C11.4688 25.3532 10.7681 25.0558 10.0675 24.7213C9.73559 24.9071 9.44057 25.1302 9.21931 25.3532C9.77246 25.6506 10.2887 25.9852 10.8788 26.2826ZM8.59239 26.5056C8.59239 26.9517 8.85053 27.3607 9.44057 27.8439C9.51432 27.5837 9.62496 27.435 9.80934 27.212C9.36681 26.9889 8.99804 26.7287 8.59239 26.5056ZM11.9482 18.2529C16.7791 16.8402 21.8682 16.3941 27.031 15.0187C25.0028 14.461 23.9333 14.238 21.7944 14.4982C18.6967 14.87 15.304 15.5391 12.3907 16.3941C11.2476 16.7287 5.23657 18.4387 6.9698 20.8551C6.9698 20.8923 8.00236 19.4424 11.9482 18.2529ZM30.0918 13.2714C29.3174 12.8997 28.3217 12.5651 27.2523 12.2677C26.7729 12.6395 26.2566 12.974 25.4453 13.2714C26.736 13.4945 27.7317 13.8662 28.838 14.2008C29.0592 14.3123 29.9443 13.4573 30.0918 13.2714ZM32.4888 17.9555C32.3413 18.067 32.1938 18.2157 32.0094 18.3272C30.9031 19.1822 29.1699 19.8514 26.7729 20.5205C21.7944 21.8588 18.1805 22.0819 14.0502 23.0856C13.2389 23.2714 12.4276 23.5688 11.6532 23.8662C12.4276 24.2752 13.2389 24.6097 14.0871 24.9443C15.7466 24.461 16.5579 24.238 18.9918 23.8291C19.9137 23.6804 22.7532 23.1599 24.8184 22.7138C28.5061 21.9703 33.927 20.2231 32.4888 17.9555Z" fill="#00487C"/>
<path fill-rule="evenodd" clip-rule="evenodd" d="M58.6716 28.6987H62.765L63.2444 25.6876H66.0471L66.5265 28.6987H70.6199L67.1534 11.1895H62.0643L58.6716 28.6987ZM64.6826 16.4683L65.457 21.8214H63.9451L64.6826 16.4683Z" fill="#00487C"/>
<path fill-rule="evenodd" clip-rule="evenodd" d="M74.5288 17.9925C75.1926 17.9925 76.3727 17.5835 76.3727 16.2824C76.3727 14.7583 74.9714 14.6467 74.6026 14.6467C74.1232 14.6467 73.275 14.7211 72.39 15.13L72.3531 11.3382C73.7175 11.0036 74.7132 10.8921 75.8564 10.8921C79.1385 10.8921 80.6505 13.2341 80.6505 15.5018C80.6505 17.7322 79.3598 19.0705 78.1428 19.591V19.7768C79.3229 20.1486 80.9086 21.301 80.9086 23.9776C80.9086 27.2861 78.6222 29.1077 75.7089 29.1077C74.1232 29.1077 73.1275 28.8847 71.9106 28.2155L71.9843 24.5724C73.1275 25.0557 73.9019 25.0928 74.6764 25.0928C75.9671 25.0928 76.4833 24.1263 76.4833 23.42C76.4833 22.4534 75.8564 21.7843 74.492 21.7843H72.8325V17.9925H74.5288Z" fill="#00487C"/>
<path fill-rule="evenodd" clip-rule="evenodd" d="M93.8156 28.6987H89.7591V15.3902H86.8458V28.6987H82.7893V11.1895H93.8156V28.6987Z" fill="#00487C"/>
<path fill-rule="evenodd" clip-rule="evenodd" d="M96.102 28.6987H100.122V22.9367H101.486C105.469 22.9367 106.723 19.3307 106.723 17.0259C106.723 14.7582 105.321 11.1895 101.486 11.1895H96.102V28.6987ZM100.122 15.0556H101.08C102.002 15.0556 102.556 15.6132 102.556 17.0631C102.556 18.959 101.597 19.0705 101.08 19.0705H100.122V15.0556Z" fill="#00487C"/>
<path fill-rule="evenodd" clip-rule="evenodd" d="M114.172 28.9218C118.966 28.9218 120.552 24.4236 120.552 19.9255C120.552 15.4273 118.929 10.9292 114.172 10.9292C109.378 10.9292 107.792 15.4273 107.792 19.9255C107.792 24.4236 109.415 28.9218 114.172 28.9218ZM114.172 24.6838C112.771 24.6838 112.033 23.011 112.033 19.9255C112.033 16.84 112.771 15.1671 114.172 15.1671C115.61 15.1671 116.311 16.84 116.311 19.9255C116.348 23.011 115.61 24.6838 114.172 24.6838Z" fill="#00487C"/>
<path fill-rule="evenodd" clip-rule="evenodd" d="M138.105 28.6987H142.936C143.969 28.6987 148.32 28.2527 148.357 22.9738C148.357 18.5129 144.964 17.7322 142.789 17.7322H142.088V15.4274H147.435V11.1895H138.142V28.6987H138.105ZM142.088 25.2043V21.2266H142.678C143.157 21.2266 144.411 21.2638 144.411 23.0482C144.411 24.9069 143.12 25.2043 142.678 25.2043H142.088Z" fill="#00487C"/>
<path fill-rule="evenodd" clip-rule="evenodd" d="M173.544 28.6987H169.635V21.7099H166.796V28.6987H162.85V11.1895H166.796V17.5092H169.635V11.1895H173.544V28.6987Z" fill="#00487C"/>
<path fill-rule="evenodd" clip-rule="evenodd" d="M187.557 11.1895L184.46 19.5166L188 28.6987H183.353L181.104 21.6727H180.145V28.6987H176.199V11.1895H180.145V17.5092H180.993L183.28 11.1895H187.557Z" fill="#00487C"/>
<path fill-rule="evenodd" clip-rule="evenodd" d="M50.8905 11.1895H59.151V15.5761H54.9839V28.6987H50.8905V11.1895Z" fill="#00487C"/>
<path fill-rule="evenodd" clip-rule="evenodd" d="M131.393 28.6987V18.0296L128.96 21.0779L126.526 18.0296V28.6987H122.506V11.1895H125.936L128.96 15.3158L131.984 11.1895H135.413V28.6987H131.393Z" fill="#00487C"/>
<path fill-rule="evenodd" clip-rule="evenodd" d="M149.131 28.7359H153.225L153.704 25.7247H156.507L157.023 28.7359H161.117L157.65 11.2266H152.561L149.131 28.7359ZM155.142 16.5054L155.917 21.8585H154.405L155.142 16.5054Z" fill="#00487C"/>
</svg>
