<svg width="40" height="40" viewBox="0 0 40 40" fill="none" xmlns="http://www.w3.org/2000/svg">
<g clip-path="url(#clip0_78_320)">
<path d="M15.55 19.1667H19.1667C21.1558 19.1667 23.0635 19.9569 24.47 21.3634C25.8765 22.7699 26.6667 24.6776 26.6667 26.6667H14.9984L15 28.3333H28.3334V26.6667C28.3281 24.8933 27.8157 23.1584 26.8567 21.6667H31.6667C33.2421 21.6662 34.7854 22.1124 36.1176 22.9534C37.4498 23.7944 38.5162 24.9958 39.1934 26.4183C35.2517 31.62 28.87 35 21.6667 35C17.065 35 13.1667 34.0167 10 32.2917V16.785C12.0277 17.0755 13.9425 17.8972 15.55 19.1667ZM6.66669 15C7.07491 15.0001 7.46892 15.1499 7.77397 15.4212C8.07903 15.6925 8.27393 16.0663 8.32169 16.4717L8.33335 16.6667V31.6667C8.33335 32.1087 8.15776 32.5326 7.8452 32.8452C7.53264 33.1577 7.10871 33.3333 6.66669 33.3333H3.33335C2.89133 33.3333 2.4674 33.1577 2.15484 32.8452C1.84228 32.5326 1.66669 32.1087 1.66669 31.6667V16.6667C1.66669 16.2246 1.84228 15.8007 2.15484 15.4882C2.4674 15.1756 2.89133 15 3.33335 15H6.66669ZM22.7434 5.95834L23.3334 6.55001L23.9234 5.96001C24.3097 5.57037 24.7692 5.26088 25.2755 5.04931C25.7818 4.83774 26.3248 4.72825 26.8736 4.72712C27.4223 4.726 27.9658 4.83327 28.4729 5.04276C28.9801 5.25226 29.4408 5.55987 29.8288 5.94792C30.2167 6.33597 30.5242 6.79682 30.7336 7.30402C30.9429 7.81122 31.05 8.35478 31.0487 8.90349C31.0475 9.4522 30.9378 9.99525 30.7261 10.5015C30.5144 11.0077 30.2048 11.4671 29.815 11.8533L23.3334 18.3333L16.85 11.85C16.4604 11.4637 16.1509 11.0042 15.9393 10.4979C15.7277 9.9916 15.6183 9.44851 15.6171 8.89981C15.616 8.3511 15.7233 7.80757 15.9328 7.30043C16.1423 6.79329 16.4499 6.33252 16.8379 5.94458C17.226 5.55664 17.6868 5.24917 18.194 5.03981C18.7012 4.83046 19.2448 4.72334 19.7935 4.72462C20.3422 4.7259 20.8853 4.83554 21.3915 5.04726C21.8977 5.25898 22.3571 5.5686 22.7434 5.95834Z" fill="white"/>
</g>
<defs>
<clipPath id="clip0_78_320">
<rect width="40" height="40" fill="white"/>
</clipPath>
</defs>
</svg>
