<svg width="140" height="35" viewBox="0 0 140 35" fill="none" xmlns="http://www.w3.org/2000/svg">
<mask id="mask0_72_235" style="mask-type:luminance" maskUnits="userSpaceOnUse" x="0" y="0" width="140" height="35">
<path d="M140 0.0717773H0V34.0718H140V0.0717773Z" fill="white"/>
</mask>
<g mask="url(#mask0_72_235)">
<path d="M78.5247 0.686035L61.1905 2.95276V8.09204L78.5247 6.54242V0.686035Z" fill="#E40038"/>
<path d="M20.3194 19.3555C20.3194 13.6393 23.4887 11.0264 29.4687 11.0264C35.4488 11.0264 38.6304 13.6393 38.6304 19.3555C38.6304 25.0718 35.4735 27.7795 29.4687 27.7795C23.464 27.7795 20.3194 25.0718 20.3194 19.3555ZM25.5576 19.4009C25.5576 22.5207 26.4849 23.6046 29.4687 23.6046C32.4526 23.6046 33.3592 22.5207 33.3592 19.4009C33.3592 16.281 32.4608 15.2013 29.4687 15.2013C26.4766 15.2013 25.5576 16.2687 25.5576 19.4009Z" fill="#00234D"/>
<path d="M69.2064 23.621C66.2267 23.621 65.2994 22.5371 65.2994 19.4173C65.2994 16.2975 66.2267 15.2177 69.2064 15.2177C72.1862 15.2177 73.1011 16.2851 73.1011 19.4173C73.1011 22.5495 72.2026 23.621 69.2064 23.621ZM75.2401 12.4935L61.1905 2.95264V8.08367L65.5715 11.051L66.4328 11.5579C65.3415 11.5004 64.2584 11.7779 63.3295 12.3534C61.1658 13.6598 60.0324 15.9595 60.0324 19.3596C60.0324 25.0759 63.1852 27.7794 69.1776 27.7794C75.17 27.7794 78.3393 25.0759 78.3393 19.3596C78.3393 16.0625 77.2677 13.7917 75.2112 12.4688" fill="#00234D"/>
<path d="M9.51332 23.5053C6.53361 23.5053 5.60219 22.4214 5.60219 19.3015C5.60219 16.1817 6.53361 15.1019 9.51332 15.1019C12.493 15.1019 13.408 16.1693 13.408 19.3015C13.408 22.4337 12.5095 23.5053 9.51332 23.5053ZM11.302 10.9971C8.47063 10.9971 6.17094 12.7445 5.59807 13.4699V11.368H0.578308V32.8524H5.56922V25.2115C6.15445 25.9533 8.45414 27.6843 11.2855 27.6843C16.0126 27.6843 18.6091 25.1167 18.6091 19.3386C18.6091 13.5605 16.0126 11.0094 11.302 11.0094" fill="#00234D"/>
<path d="M112.711 11.3848V17.2164H106.088V11.3848H101.064V27.1653H106.088V21.2553H112.711V27.1653H117.735V11.3848H112.711Z" fill="#00234D"/>
<path d="M85.2961 19.3015C85.2961 16.1693 86.1945 15.1019 89.1907 15.1019C92.1869 15.1019 93.1018 16.1693 93.1018 19.3015C93.1018 22.4337 92.1704 23.5053 89.1907 23.5053C86.211 23.5053 85.2961 22.4214 85.2961 19.3015ZM80.095 19.3262C80.095 25.0961 82.6914 27.6719 87.4185 27.6719C90.2623 27.6719 92.5496 25.9533 93.1348 25.1991V27.165H98.1257V11.368H93.106V13.4699C92.5331 12.7445 90.221 10.9971 87.4021 10.9971C82.6914 10.9971 80.095 13.5647 80.095 19.3262Z" fill="#00234D"/>
<path d="M53.1993 21.333C52.816 22.9815 51.7527 23.6038 49.4901 23.6038C46.5104 23.6038 45.5831 22.5199 45.5831 19.4001C45.5831 16.2802 46.5104 15.2004 49.4901 15.2004C51.7568 15.2004 52.8201 15.8145 53.1993 17.4713L58.4375 17.0592C57.6544 12.9378 54.5923 11.0132 49.4818 11.0132C43.5059 11.0132 40.3366 13.6261 40.3366 19.3424C40.3366 25.0586 43.4894 27.7663 49.4818 27.7663C54.584 27.7663 57.6173 25.8046 58.421 21.7162L53.1993 21.333Z" fill="#00234D"/>
<path d="M138.993 27.1612L131.043 18.8773L138.564 11.3848H132.353L125.611 18.2385V11.3848H120.678V27.1612H125.611V21.6427V20.2786V19.8953L132.535 27.1612H138.993Z" fill="#00234D"/>
</g>
</svg>
