<svg width="127" height="42" viewBox="0 0 127 42" fill="none" xmlns="http://www.w3.org/2000/svg">
<g clip-path="url(#clip0_72_30)">
<path d="M15.8438 15.141L20.4793 15.1363C21.3753 15.1363 22.1696 14.8855 22.7792 14.4655C23.428 14.0431 23.9141 13.4155 24.2027 12.7026L26.588 6.11914L22.1153 6.12147C21.224 6.12147 20.432 6.28831 19.7854 6.71181C19.0939 7.13181 18.5108 7.92514 18.3342 8.51431L15.8438 15.141Z" fill="#FDB913"/>
<path d="M27.7056 11.376L26.7474 13.8085C26.3375 14.7313 25.5928 15.7382 25.1114 16.0742C24.1739 16.7858 22.8323 17.4158 21.3695 17.4193L12.506 17.4275L14.9029 9.88967L15.8611 7.45717C16.271 6.53434 17.0145 5.5275 17.4925 5.19034C18.4358 4.47984 19.7716 3.84751 21.2356 3.84751L29.5841 3.83817L27.7056 11.376ZM41.5659 0.138672H13.5093C11.9622 0.138672 9.89214 0.587839 8.17418 1.80584C6.59592 2.98067 6.29342 4.06801 5.68498 5.32917C5.58222 5.57884 5.38826 5.91484 5.30052 6.21L1.49167 17.4345L0.212433 21.127H29.0992C30.6428 21.1247 32.7152 20.679 34.4343 19.4598C36.0057 18.285 36.3174 17.1942 36.9177 15.9377C37.0228 15.6845 37.2191 15.3485 37.3068 15.0568L41.5659 0.208672H41.5405L41.5659 0.138672Z" fill="#004282"/>
<path d="M56.4215 21.112C53.146 21.112 50.9547 20.6605 49.2437 18.5197C47.9783 16.9505 47.3179 14.8668 47.3179 10.8278C47.3179 7.2975 47.6481 4.6445 49.1513 2.74283C51.0736 0.270667 54.1378 0 56.5104 0H65.405V4.011H59.7847C57.5633 4.011 55.9123 3.98183 54.9783 5.66883C54.3745 6.72583 54.2879 9.67983 54.2879 10.7053C54.2879 13.0585 54.6181 15.0827 54.7959 15.4432C55.6999 17.101 57.6522 17.101 59.9036 17.101H65.7364V21.112H56.4215Z" fill="#004282"/>
<path d="M81.3227 0V8.3055H74.6252V0H67.8342V21.112H74.6252V12.313H81.3227V21.112H88.1091V0H81.3227Z" fill="#004282"/>
<path d="M91.9318 21.112V3.85817C91.9318 2.92367 91.9607 1.89933 92.7723 1.0255C93.3138 0.4515 94.2455 0 95.2696 0H106.409V4.011H100.134C99.7135 4.011 99.1708 3.98183 98.9007 4.30967C98.7206 4.55233 98.7205 5.005 98.7205 5.36667V21.112H91.9318Z" fill="#004282"/>
<path d="M114.514 16.1257C114.514 17.6015 114.992 17.5128 115.956 17.5128H118.081C118.469 17.5128 119.222 17.5128 119.644 17.1208C120.035 16.7603 120.035 15.3603 120.035 14.9987C120.035 14.5145 120.035 12.4752 119.58 12.1438C119.132 11.7798 118.469 11.7798 118.081 11.7798H114.514V16.1257ZM125.77 4.011H115.804C114.541 4.011 114.514 4.49283 114.514 5.27683V8.02317H122.343C123.966 8.02317 125.169 8.687 125.798 9.4115C126.911 10.7053 127 12.9663 127 14.385C127 16.1945 126.85 18.1568 125.832 19.481C125.558 19.845 124.477 21.1097 122.403 21.1097H110.668C108.923 21.1097 107.724 19.8718 107.724 18.1568V3.3775C107.724 0.180833 110.249 0 110.996 0H125.769L125.77 4.011Z" fill="#004282"/>
<path d="M0 31.6072V39.9547C0.184727 39.9699 0.409864 39.9839 0.676564 40.0014C0.944418 40.0189 1.23998 40.0271 1.56325 40.0294C1.93617 40.0306 2.2987 40.0014 2.6543 39.9384C3.00644 39.8766 3.33548 39.7774 3.63797 39.6362C3.94277 39.4962 4.20832 39.3084 4.43115 39.0751C4.62742 38.8674 4.78213 38.6154 4.89758 38.3237C5.01304 38.0321 5.07192 37.6926 5.07307 37.3041C5.07192 36.9401 5.01765 36.6227 4.91028 36.3462C4.80406 36.0697 4.65513 35.8341 4.46694 35.6369C4.27644 35.4386 4.05476 35.2764 3.80192 35.1492C3.50751 35.0011 3.18424 34.8937 2.83095 34.8284C2.47881 34.7584 2.11744 34.7269 1.74452 34.7281C1.67986 34.7281 1.59558 34.7304 1.49398 34.7316C1.39123 34.7374 1.2827 34.7409 1.16955 34.7456C1.05525 34.7526 0.947882 34.7584 0.845127 34.7666C0.745836 34.7736 0.659245 34.7806 0.594591 34.7911V32.1147H4.4196V31.6072H0ZM0.593436 35.2986C0.708891 35.2857 0.831273 35.2741 0.964045 35.2647C1.09797 35.2566 1.22959 35.2484 1.35544 35.2437C1.48244 35.2379 1.59558 35.2356 1.69372 35.2356C2.04008 35.2332 2.37144 35.2636 2.68778 35.3289C3.00182 35.3931 3.2893 35.4981 3.54561 35.6451C3.7338 35.7524 3.89428 35.8842 4.03283 36.0417C4.16906 36.1992 4.27644 36.3847 4.35033 36.5994C4.42768 36.8152 4.46578 37.0614 4.46578 37.3437C4.46463 37.6401 4.41845 37.9037 4.32955 38.1336C4.23949 38.3646 4.11595 38.5629 3.95778 38.7309C3.78575 38.9129 3.57794 39.0634 3.33779 39.1812C3.09649 39.3014 2.83787 39.3901 2.56194 39.4496C2.286 39.5067 2.00775 39.5359 1.73066 39.5359C1.48475 39.5359 1.27115 39.5301 1.08874 39.5172C0.907473 39.5044 0.743527 39.4857 0.592282 39.4612L0.593436 35.2986ZM11.3665 37.0194L12.5176 39.9547H13.1353L9.86674 31.6072H9.28485L5.99209 39.9547H6.60977L7.73545 37.0194H11.3665ZM7.94096 36.5119L9.10244 33.5392C9.16709 33.3724 9.22597 33.2207 9.27908 33.0772C9.33104 32.9337 9.37837 32.7949 9.4234 32.6619C9.46843 32.5277 9.51114 32.3889 9.55155 32.2501H9.5758C9.61621 32.3831 9.65662 32.5184 9.69703 32.6514C9.73859 32.7844 9.78593 32.9256 9.83788 33.0737C9.88984 33.2242 9.95103 33.3911 10.0238 33.5754L11.1737 36.5119H7.94096ZM14.4411 31.6072V39.9547H15.0345V35.7687H20.1422V39.9547H20.7356V31.6072H20.1422V35.2612H15.0345V31.6072H14.4411ZM22.8658 31.6072V39.9547H23.4581V35.9297H23.8448C24.2859 35.9297 24.6646 35.9752 24.9832 36.0651C25.3019 36.1537 25.5743 36.2867 25.8018 36.4571C26.0269 36.6309 26.2243 36.8421 26.386 37.0894C26.5499 37.3379 26.6954 37.6202 26.8224 37.9376C26.9159 38.1616 27.0106 38.3914 27.1087 38.6247C27.2069 38.8604 27.3108 39.0902 27.4158 39.3166C27.5209 39.5429 27.6306 39.7564 27.7426 39.9559H28.3718C28.2529 39.7319 28.142 39.5044 28.0381 39.2769C27.9377 39.0541 27.8361 38.8149 27.7322 38.5699C27.6271 38.3237 27.514 38.0601 27.3916 37.7766C27.2542 37.4592 27.1076 37.1687 26.9471 36.9051C26.7866 36.6426 26.6007 36.4116 26.386 36.2132C26.1724 36.0149 25.9172 35.8539 25.6171 35.7326C25.3192 35.6112 24.9613 35.5319 24.5456 35.4969L28.1651 31.6084H27.4632L23.9534 35.4479H23.4569V31.6084H22.8658V31.6072ZM32.4647 31.6072V39.9547H33.0581V35.7687H38.1658V39.9547H38.7592V31.6072H38.1658V35.2612H33.0581V31.6072H32.4647ZM45.5607 37.0194L46.7106 39.9547H47.3283L44.0598 31.6072H43.479L40.1863 39.9547H40.8039L41.9308 37.0194H45.5607ZM42.1351 36.5119L43.2978 33.5392C43.3624 33.3724 43.4201 33.2207 43.4733 33.0772C43.5264 32.9337 43.5737 32.7949 43.6176 32.6619C43.6626 32.5277 43.7053 32.3889 43.7446 32.2501H43.7688C43.8092 32.3831 43.8485 32.5184 43.89 32.6514C43.9316 32.7844 43.9778 32.9256 44.0309 33.0737C44.0829 33.2242 44.1429 33.3911 44.2156 33.5754L45.3656 36.5119H42.1351ZM48.6352 31.6072V39.9547H57.1939V31.6072H56.6004V39.4484H53.2107V31.6072H52.6173V39.4484H49.2275V31.6072H48.6352ZM63.5485 35.2986H59.9163V32.1147H63.754V31.6072H59.3229V39.9547H63.9595V39.4472H59.9163V35.8061H63.5485V35.2986ZM65.5089 31.6072V39.9547H66.1023V32.1136H69.8546V31.6061L65.5089 31.6072ZM74.1391 40.1041C74.5652 40.1041 74.9808 40.0422 75.3826 39.9209C75.7844 39.7972 76.1596 39.6152 76.5094 39.3726C76.8558 39.1334 77.1629 38.8347 77.425 38.4766C77.6894 38.1184 77.8937 37.7077 78.0415 37.2376C78.1893 36.7697 78.2655 36.2459 78.2678 35.6672C78.2655 35.0629 78.1662 34.5064 77.9699 33.9954C77.7736 33.4844 77.4989 33.0399 77.1386 32.6596C76.7773 32.2816 76.3512 31.9852 75.8559 31.7752C75.3618 31.5641 74.8134 31.4579 74.2119 31.4556C73.7466 31.4579 73.3044 31.5256 72.8888 31.6644C72.472 31.8021 72.0933 32.0004 71.7504 32.2617C71.4075 32.5196 71.1108 32.8311 70.8614 33.1951C70.6074 33.5602 70.4169 33.9697 70.2795 34.4212C70.1421 34.8762 70.074 35.3651 70.0705 35.8912C70.0751 36.5049 70.1756 37.0661 70.3788 37.5782C70.5797 38.0892 70.8614 38.5361 71.2274 38.9129C71.5911 39.2897 72.0205 39.5802 72.5112 39.7879C73.0042 39.9956 73.5422 40.1017 74.1253 40.1041H74.1391ZM74.1391 39.6082C73.7154 39.6059 73.3206 39.5394 72.9638 39.4076C72.6036 39.2781 72.2849 39.0937 72.0055 38.8592C71.725 38.6236 71.4871 38.3482 71.2909 38.0356C71.0946 37.7206 70.9457 37.3799 70.8429 37.0136C70.7413 36.6461 70.6894 36.2622 70.6894 35.8667C70.6894 35.4537 70.7355 35.0547 70.8302 34.6709C70.9226 34.2859 71.0646 33.9289 71.2516 33.6011C71.4363 33.2732 71.6707 32.9862 71.9513 32.7377C72.2318 32.4927 72.5586 32.3002 72.9292 32.1626C73.3032 32.0261 73.7235 31.9561 74.1876 31.9526C74.6483 31.9561 75.0651 32.0272 75.4357 32.1707C75.804 32.3131 76.1284 32.5091 76.4044 32.7599C76.6803 33.0072 76.9112 33.2919 77.0971 33.6116C77.2818 33.9324 77.4192 34.2742 77.5116 34.6336C77.6016 34.9929 77.6489 35.3534 77.6489 35.7209C77.6466 36.2774 77.5658 36.7919 77.4053 37.2621C77.2449 37.7346 77.0105 38.1452 76.708 38.4964C76.4032 38.8487 76.036 39.1206 75.6077 39.3142C75.1748 39.5079 74.691 39.6071 74.1507 39.6094L74.1391 39.6082ZM82.6966 31.6072V39.9547H83.2901V32.1136H87.0435V31.6061L82.6966 31.6072ZM91.328 40.1041C91.754 40.1041 92.1697 40.0422 92.5714 39.9209C92.9721 39.7972 93.3485 39.6152 93.6971 39.3726C94.0446 39.1334 94.3506 38.8347 94.6127 38.4766C94.8771 38.1184 95.0826 37.7077 95.2304 37.2376C95.377 36.7697 95.4532 36.2459 95.4555 35.6672C95.4532 35.0629 95.3562 34.5064 95.1588 33.9954C94.9625 33.4844 94.6866 33.0399 94.3275 32.6596C93.9661 32.2816 93.5401 31.9852 93.0448 31.7752C92.5507 31.5641 92.0023 31.4579 91.4007 31.4556C90.9343 31.4579 90.4933 31.5256 90.0776 31.6644C89.6631 31.8021 89.2833 32.0004 88.9404 32.2617C88.5964 32.5196 88.3008 32.8311 88.0503 33.1951C87.7974 33.5602 87.6058 33.9697 87.4684 34.4212C87.3321 34.8762 87.2629 35.3651 87.2605 35.8912C87.2652 36.5049 87.3656 37.0661 87.5676 37.5782C87.7709 38.0892 88.0526 38.5361 88.4162 38.9129C88.7822 39.2897 89.2106 39.5802 89.7024 39.7879C90.1942 39.9956 90.7323 40.1017 91.3153 40.1041H91.328ZM91.328 39.6082C90.9031 39.6059 90.5094 39.5394 90.1515 39.4076C89.7925 39.2781 89.4738 39.0937 89.1933 38.8592C88.9127 38.6236 88.676 38.3482 88.4797 38.0356C88.2835 37.7206 88.1345 37.3799 88.0318 37.0136C87.9302 36.6461 87.8782 36.2622 87.8782 35.8667C87.8782 35.4537 87.9244 35.0547 88.0191 34.6709C88.1114 34.2859 88.2534 33.9289 88.4405 33.6011C88.6252 33.2732 88.8607 32.9862 89.1401 32.7377C89.4207 32.4927 89.7463 32.3002 90.1192 32.1626C90.4921 32.0261 90.9124 31.9561 91.3753 31.9526C91.8372 31.9561 92.2528 32.0272 92.6246 32.1707C92.9929 32.3131 93.3173 32.5091 93.5932 32.7599C93.8692 33.0072 94.1001 33.2919 94.2848 33.6116C94.4707 33.9324 94.6069 34.2742 94.7004 34.6336C94.7905 34.9929 94.8378 35.3534 94.8378 35.7209C94.8355 36.2774 94.7547 36.7919 94.5931 37.2621C94.4337 37.7346 94.2005 38.1452 93.8969 38.4964C93.5921 38.8487 93.2249 39.1206 92.7954 39.3142C92.3636 39.5079 91.8799 39.6071 91.3396 39.6094L91.328 39.6082ZM96.9807 39.9547H97.5741V36.3999C97.7427 36.4536 97.9274 36.4886 98.1237 36.5037C98.3188 36.5201 98.5254 36.5271 98.7367 36.5247C99.0981 36.5247 99.4364 36.4897 99.7585 36.4209C100.076 36.3521 100.367 36.2517 100.629 36.1199C100.892 35.9857 101.116 35.8177 101.303 35.6194C101.51 35.4094 101.666 35.1609 101.773 34.8739C101.878 34.5892 101.933 34.2626 101.933 33.8974C101.93 33.5567 101.874 33.2499 101.762 32.9781C101.646 32.7086 101.487 32.4717 101.279 32.2734C101.038 32.0366 100.72 31.8546 100.328 31.7239C99.934 31.5967 99.4641 31.5326 98.9191 31.5302C98.5416 31.5326 98.1906 31.5466 97.8639 31.5781C97.5372 31.6084 97.245 31.6469 96.9818 31.6912L96.9807 39.9547ZM97.5741 32.1521C97.6965 32.1252 97.8731 32.0996 98.0983 32.0786C98.3257 32.0541 98.5959 32.0436 98.9053 32.0412C99.239 32.0389 99.5518 32.0716 99.8416 32.1404C100.135 32.2092 100.394 32.3177 100.616 32.4682C100.84 32.6187 101.018 32.8171 101.145 33.0644C101.272 33.3129 101.337 33.6151 101.339 33.9732C101.339 34.4049 101.24 34.7736 101.045 35.0757C100.848 35.3791 100.562 35.6124 100.187 35.7734C99.8105 35.9356 99.3509 36.0149 98.8095 36.0172C98.5774 36.0172 98.3569 36.0067 98.1456 35.9846C97.9355 35.9612 97.7461 35.9239 97.5752 35.8679L97.5741 32.1521ZM107.076 40.1041C107.501 40.1041 107.918 40.0422 108.318 39.9209C108.72 39.7972 109.095 39.6152 109.444 39.3726C109.793 39.1334 110.097 38.8347 110.361 38.4766C110.625 38.1184 110.829 37.7077 110.977 37.2376C111.125 36.7697 111.2 36.2459 111.204 35.6672C111.2 35.0629 111.102 34.5064 110.906 33.9954C110.711 33.4844 110.435 33.0399 110.074 32.6596C109.713 32.2816 109.288 31.9852 108.793 31.7752C108.298 31.5641 107.75 31.4579 107.148 31.4556C106.682 31.4579 106.24 31.5256 105.824 31.6644C105.409 31.8021 105.03 32.0004 104.686 32.2617C104.343 32.5196 104.046 32.8311 103.796 33.1951C103.543 33.5602 103.351 33.9697 103.215 34.4212C103.078 34.8762 103.009 35.3651 103.007 35.8912C103.011 36.5049 103.112 37.0661 103.314 37.5782C103.517 38.0892 103.798 38.5361 104.163 38.9129C104.528 39.2897 104.956 39.5802 105.448 39.7879C105.94 39.9956 106.479 40.1017 107.061 40.1041H107.076ZM107.076 39.6082C106.65 39.6059 106.257 39.5394 105.9 39.4076C105.539 39.2781 105.222 39.0937 104.941 38.8592C104.661 38.6236 104.423 38.3482 104.228 38.0356C104.031 37.7206 103.883 37.3799 103.779 37.0136C103.677 36.6461 103.625 36.2622 103.625 35.8667C103.625 35.4537 103.671 35.0547 103.766 34.6709C103.858 34.2859 104 33.9289 104.188 33.6011C104.373 33.2732 104.606 32.9862 104.887 32.7377C105.168 32.4927 105.493 32.3002 105.866 32.1626C106.239 32.0261 106.659 31.9561 107.123 31.9526C107.584 31.9561 108.001 32.0272 108.371 32.1707C108.741 32.3131 109.063 32.5091 109.34 32.7599C109.616 33.0072 109.848 33.2919 110.033 33.6116C110.218 33.9324 110.355 34.2742 110.448 34.6336C110.538 34.9929 110.585 35.3534 110.585 35.7209C110.582 36.2774 110.503 36.7919 110.341 37.2621C110.181 37.7346 109.947 38.1452 109.644 38.4964C109.339 38.8487 108.973 39.1206 108.542 39.3142C108.112 39.5079 107.627 39.6071 107.086 39.6094L107.076 39.6082ZM113.709 31.6072V33.7621C113.709 34.3594 113.693 34.9031 113.663 35.3907C113.63 35.8796 113.578 36.3241 113.507 36.7254C113.434 37.1256 113.341 37.4931 113.225 37.8244C113.151 38.0309 113.065 38.2281 112.966 38.4159C112.868 38.6061 112.77 38.7846 112.667 38.9572C112.565 39.1276 112.467 39.2909 112.377 39.4484H111.783L111.858 41.9999H112.342L112.403 39.9547H118.346L118.407 41.9999H118.89L118.963 39.4472H118.249V31.6061L113.709 31.6072ZM114.267 32.1136H117.656V39.4472H113.009C113.087 39.3259 113.171 39.1882 113.259 39.0319C113.35 38.8779 113.439 38.7099 113.524 38.5326C113.611 38.3552 113.688 38.1732 113.759 37.9854C113.879 37.6622 113.976 37.3041 114.051 36.9156C114.126 36.5294 114.182 36.1024 114.217 35.6381C114.25 35.1761 114.268 34.6627 114.268 34.1074L114.267 32.1136ZM125.232 37.0194L126.382 39.9547H127L123.731 31.6072H123.151L119.858 39.9547H120.475L121.601 37.0194H125.232ZM121.807 36.5119L122.969 33.5392C123.034 33.3724 123.092 33.2207 123.145 33.0772C123.197 32.9337 123.245 32.7949 123.289 32.6619C123.334 32.5277 123.376 32.3889 123.416 32.2501H123.441C123.48 32.3831 123.52 32.5184 123.561 32.6514C123.602 32.7844 123.65 32.9256 123.701 33.0737C123.755 33.2242 123.815 33.3911 123.887 33.5754L125.037 36.5119H121.807Z" fill="#004282"/>
</g>
<defs>
<clipPath id="clip0_72_30">
<rect width="127" height="42" fill="white"/>
</clipPath>
</defs>
</svg>
