<svg width="235" height="29" viewBox="0 0 235 29" fill="none" xmlns="http://www.w3.org/2000/svg">
<g clip-path="url(#clip0_78_238)">
<path d="M46.2735 5.58154C49.5345 5.58154 52.1764 6.94763 53.2909 7.96243L51.4333 10.1091C50.5252 9.32851 48.5026 8.27468 46.2735 8.27468C42.1869 8.27468 39.6276 10.9288 39.6276 14.5587C39.6276 18.1885 42.0631 20.8426 46.3148 20.8426C48.7915 20.8426 50.938 19.5937 51.8461 18.735L53.6211 20.9597C52.5066 22.0526 49.6996 23.5358 46.2735 23.5358C40.2468 23.5358 36.5317 19.7107 36.5317 14.5196C36.5317 9.40658 40.3706 5.58154 46.2735 5.58154Z" fill="#213A8B"/>
<path d="M64.8489 5.58154C70.4216 5.58154 74.4669 9.40658 74.4669 14.5977C74.4669 19.7888 70.4216 23.6138 64.8489 23.6138C59.2763 23.6138 55.231 19.7888 55.231 14.5977C55.231 9.40658 59.2763 5.58154 64.8489 5.58154ZM64.8489 20.8817C68.6053 20.8817 71.4123 18.1885 71.4123 14.5977C71.4123 10.9678 68.6466 8.31371 64.8489 8.31371C61.0926 8.31371 58.2856 11.0068 58.2856 14.5977C58.2856 18.1885 61.0926 20.8817 64.8489 20.8817Z" fill="#213A8B"/>
<path d="M93.6202 18.1884C93.6202 20.7254 91.8865 23.1843 87.4697 23.1843H77.7692V5.97168H86.8918C90.6069 5.97168 92.7121 8.11838 92.7121 10.5773C92.7121 11.9434 92.0517 13.1924 90.4418 14.2072C92.0517 14.7146 93.6202 15.8465 93.6202 18.1884ZM80.7413 8.66482V13.2705L86.5203 13.2314C88.5842 13.2314 89.6575 12.1386 89.6575 10.8505C89.6575 9.67962 88.7494 8.66482 86.9331 8.66482H80.7413ZM87.6348 20.4912C89.74 20.4912 90.5656 19.3983 90.5656 18.1884C90.5656 16.9003 89.6162 15.8075 87.7174 15.8075H80.7825V20.4912H87.6348Z" fill="#213A8B"/>
<path d="M105.591 14.3243L113.64 23.1843H109.678L102.949 15.6514H99.4818V23.1843H96.4685V5.97168H99.4818V13.0753H102.949L109.513 5.97168H113.517L105.591 14.3243Z" fill="#213A8B"/>
<path d="M122.887 5.58154C128.46 5.58154 132.505 9.40658 132.505 14.5977C132.505 19.7888 128.46 23.6138 122.887 23.6138C117.314 23.6138 113.269 19.7888 113.269 14.5977C113.269 9.40658 117.314 5.58154 122.887 5.58154ZM122.887 20.8817C126.643 20.8817 129.45 18.1885 129.45 14.5977C129.45 10.9678 126.685 8.31371 122.887 8.31371C119.131 8.31371 116.324 11.0068 116.324 14.5977C116.324 18.1885 119.131 20.8817 122.887 20.8817Z" fill="#213A8B"/>
<path d="M152.69 5.97168H155.58V23.1843H152.566V10.3822L146.581 17.9542H144.765L138.779 10.3822V23.1843H135.766V5.97168H138.655L145.673 14.7927L152.69 5.97168Z" fill="#213A8B"/>
<path d="M169.284 12.9973C173.288 12.9973 175.476 15.222 175.476 18.0713C175.476 20.9205 173.288 23.1843 169.491 23.1843H159.584V5.97168H173.784V8.66482H162.597V12.9973H169.284ZM169.367 20.4912C171.431 20.4912 172.38 19.3983 172.38 18.1103C172.38 16.8223 171.431 15.7294 169.367 15.7294H162.597V20.4912H169.367Z" fill="#213A8B"/>
<path d="M192.111 23.1843L190.13 18.8909H181.503L179.521 23.1843H176.26L184.186 5.97168H187.488L195.414 23.1843H192.111ZM182.7 16.3149H188.974L185.837 9.44543L182.7 16.3149Z" fill="#213A8B"/>
<path d="M211.141 5.97168H214.154V23.1843H211.141V15.8075H200.615V23.1843H197.601V5.97168H200.615V13.1143H211.141V5.97168Z" fill="#213A8B"/>
<path d="M227.281 14.3243L235.372 23.1843H231.367L224.639 15.6514H221.172V23.1843H218.158V5.97168H221.172V13.0753H224.639L231.202 5.97168H235.206L227.281 14.3243Z" fill="#213A8B"/>
<path d="M0.495361 14.5978C0.495361 22.4821 7.26508 28.8831 15.6447 28.8831C15.8511 28.8831 16.0575 28.8831 16.2638 28.8831V23.4578H15.6447C10.4435 23.4578 6.27439 19.4767 6.27439 14.5978C6.27439 9.71893 10.4848 5.73777 15.6447 5.73777H16.2638V0.273438C16.0575 0.273438 15.8511 0.273438 15.6447 0.273438C7.26508 0.273438 0.495361 6.67451 0.495361 14.5978Z" fill="#DA5155"/>
<path d="M18.658 0.546387V8.0013H15.6446C11.7644 8.0013 8.66852 10.9286 8.66852 14.5975C8.66852 18.2274 11.8057 21.1938 15.6446 21.1938H18.658V28.6487C25.5515 27.3216 30.7527 21.545 30.7527 14.6366C30.7527 7.65002 25.5515 1.87344 18.658 0.546387Z" fill="#213A8B"/>
</g>
<defs>
<clipPath id="clip0_78_238">
<rect width="235" height="29" fill="white"/>
</clipPath>
</defs>
</svg>
