<svg width="20" height="20" viewBox="0 0 20 20" fill="none" xmlns="http://www.w3.org/2000/svg">
<g clip-path="url(#clip0_38_234)">
<path d="M9.99999 18.3332C9.01508 18.3332 8.03981 18.1392 7.12987 17.7623C6.21992 17.3854 5.39313 16.833 4.69669 16.1365C4.00025 15.4401 3.44781 14.6133 3.0709 13.7034C2.69399 12.7934 2.49999 11.8181 2.49999 10.8332C2.49999 9.84832 2.69399 8.87305 3.0709 7.9631C3.44781 7.05316 4.00025 6.22637 4.69669 5.52993C5.39313 4.83349 6.21992 4.28104 7.12987 3.90413C8.03981 3.52722 9.01508 3.33323 9.99999 3.33323C11.9891 3.33323 13.8968 4.12341 15.3033 5.52993C16.7098 6.93645 17.5 8.84411 17.5 10.8332C17.5 12.8224 16.7098 14.73 15.3033 16.1365C13.8968 17.5431 11.9891 18.3332 9.99999 18.3332ZM10.8333 10.8332V6.66656H9.16666V12.4999H13.3333V10.8332H10.8333ZM1.45583 5.2349L4.40166 2.28906L5.58083 3.4674L2.63333 6.41406L1.45583 5.2349ZM15.5975 2.28906L18.5442 5.2349L17.3658 6.41406L14.4192 3.4674L15.5983 2.28906H15.5975Z" fill="#E09B58"/>
</g>
<defs>
<clipPath id="clip0_38_234">
<rect width="20" height="20" fill="white"/>
</clipPath>
</defs>
</svg>
