<svg width="20" height="20" viewBox="0 0 20 20" fill="none" xmlns="http://www.w3.org/2000/svg">
<g clip-path="url(#clip0_11_78)">
<path d="M10 18.3333C9.01509 18.3333 8.03982 18.1393 7.12987 17.7624C6.21993 17.3855 5.39314 16.8331 4.6967 16.1366C4.00026 15.4402 3.44781 14.6134 3.0709 13.7034C2.69399 12.7935 2.5 11.8182 2.5 10.8333C2.5 9.84841 2.69399 8.87314 3.0709 7.96319C3.44781 7.05325 4.00026 6.22646 4.6967 5.53002C5.39314 4.83358 6.21993 4.28113 7.12987 3.90422C8.03982 3.52731 9.01509 3.33332 10 3.33332C11.9891 3.33332 13.8968 4.1235 15.3033 5.53002C16.7098 6.93654 17.5 8.8442 17.5 10.8333C17.5 12.8224 16.7098 14.7301 15.3033 16.1366C13.8968 17.5431 11.9891 18.3333 10 18.3333ZM10.8333 10.8333V6.66665H9.16667V12.5H13.3333V10.8333H10.8333ZM1.45583 5.23499L4.40167 2.28915L5.58083 3.46749L2.63333 6.41415L1.45583 5.23499ZM15.5975 2.28915L18.5442 5.23499L17.3658 6.41415L14.4192 3.46749L15.5983 2.28915H15.5975Z" fill="#9FC55A"/>
</g>
<defs>
<clipPath id="clip0_11_78">
<rect width="20" height="20" fill="white"/>
</clipPath>
</defs>
</svg>
