<svg width="92" height="33" viewBox="0 0 92 33" fill="none" xmlns="http://www.w3.org/2000/svg">
<path fill-rule="evenodd" clip-rule="evenodd" d="M6.25065 0L4.68701 4.28311H26.3556L27.9192 0H6.25065ZM3.90471 6.42369L2.34107 10.7058H24.0096L25.5732 6.42369H3.90471ZM1.56364 12.8474L0 17.1295H21.6685L23.2312 12.8474H1.56364Z" fill="#009FDF"/>
<mask id="mask0_72_112" style="mask-type:luminance" maskUnits="userSpaceOnUse" x="32" y="6" width="60" height="27">
<path d="M32.5097 32.7426H91.8248V6.50586H32.5097V32.7426Z" fill="#0A2973"/>
</mask>
<g mask="url(#mask0_72_112)">
<path fill-rule="evenodd" clip-rule="evenodd" d="M46.0659 18.7615V18.8519C47.0562 19.2154 48.0021 19.8509 48.4977 20.2591C50.0289 21.5303 50.7049 23.2096 50.7049 25.3884C50.7049 28.9754 48.813 31.5624 45.7053 32.3797C44.7594 32.6518 43.7691 32.7432 41.9216 32.7432H32.5097V6.50586H40.8417C42.5532 6.50586 43.7238 6.59623 44.7594 6.86834C47.7775 7.68565 49.759 9.77411 49.759 13.087C49.759 14.8577 49.1283 16.3563 48.0928 17.3543C47.6425 17.8082 47.0119 18.3534 46.0659 18.7615ZM37.7339 21.5303V28.4302H41.3373C42.4172 28.4302 43.4085 28.3398 44.1297 27.6586C44.85 26.9773 45.1653 26.1153 45.1653 24.9802C45.1653 24.1182 44.9397 23.3009 44.4894 22.711C43.7238 21.7577 42.7779 21.5303 41.157 21.5303H37.7339ZM37.6886 16.9909H40.616C41.5166 16.9909 41.9669 16.9909 42.4172 16.8548C43.6341 16.4913 44.3997 15.4029 44.3997 13.9044C44.3997 12.1347 43.5888 11.3621 42.4172 10.9996C41.9216 10.8635 41.427 10.8178 40.4357 10.8178H37.6886V16.9909ZM58.5412 32.7432V10.9082H51.0202V6.50586H71.9181L70.4323 10.9082H63.7655V32.7432H58.5412ZM73.539 32.7432V6.50586H90.474L88.9881 10.9082H78.7189V16.7188H82.9076C86.2853 16.7188 88.0421 17.5361 89.258 18.5798C90.204 19.3971 91.8248 21.2125 91.8248 24.7995C91.8248 28.3398 90.1586 30.2913 88.7624 31.2903C87.1416 32.4244 85.43 32.7432 81.9617 32.7432H73.539ZM78.7189 28.3398H82.6376C84.1235 28.3398 85.0241 27.9764 85.6547 27.1591C85.97 26.7509 86.4203 26.024 86.4203 24.6625C86.4203 23.3009 85.97 22.3476 85.0694 21.6663C84.5294 21.2582 83.8082 21.0317 82.5923 21.0317H78.7189V28.3398Z" fill="#0A2973"/>
</g>
</svg>
